<svg width="28" height="28" viewBox="0 0 28 28" fill="none" xmlns="http://www.w3.org/2000/svg">
<circle cx="14" cy="14" r="13.5" stroke="#FFF3DD"/>
<path d="M14.5 6.53156C16.7696 6.53156 17.0384 6.5402 17.9347 6.58109C18.7634 6.61892 19.2135 6.75739 19.5131 6.87376C19.9098 7.02796 20.193 7.21218 20.4904 7.50961C20.7878 7.80703 20.972 8.09022 21.1262 8.48694C21.2426 8.78649 21.3811 9.23656 21.4189 10.0653C21.4598 10.9616 21.4684 11.2304 21.4684 13.5C21.4684 15.7696 21.4598 16.0384 21.4189 16.9347C21.3811 17.7635 21.2426 18.2135 21.1262 18.5131C20.972 18.9098 20.7878 19.193 20.4904 19.4904C20.193 19.7879 19.9098 19.9721 19.5131 20.1262C19.2135 20.2426 18.7634 20.3811 17.9347 20.4189C17.0385 20.4598 16.7697 20.4685 14.5 20.4685C12.2302 20.4685 11.9614 20.4598 11.0653 20.4189C10.2365 20.3811 9.78646 20.2426 9.48694 20.1262C9.09019 19.9721 8.807 19.7879 8.50957 19.4904C8.21215 19.193 8.02792 18.9098 7.87376 18.5131C7.75736 18.2135 7.61888 17.7635 7.58106 16.9348C7.54017 16.0384 7.53153 15.7696 7.53153 13.5C7.53153 11.2304 7.54017 10.9616 7.58106 10.0653C7.61888 9.23656 7.75736 8.78649 7.87376 8.48694C8.02792 8.09022 8.21215 7.80703 8.50957 7.50961C8.807 7.21218 9.09019 7.02796 9.48694 6.87376C9.78646 6.75739 10.2365 6.61892 11.0652 6.58109C11.9616 6.5402 12.2304 6.53156 14.5 6.53156ZM14.5 5C12.1915 5 11.9021 5.00978 10.9955 5.05115C10.0907 5.09245 9.47284 5.23612 8.93214 5.44626C8.37319 5.66348 7.89917 5.95412 7.42663 6.42666C6.95409 6.8992 6.66345 7.37323 6.44622 7.93218C6.23608 8.47287 6.09242 9.09073 6.05112 9.99549C6.00975 10.9021 6 11.1915 6 13.5C6 15.8085 6.00975 16.098 6.05112 17.0045C6.09242 17.9093 6.23608 18.5272 6.44622 19.0679C6.66345 19.6268 6.95409 20.1008 7.42663 20.5734C7.89917 21.0459 8.37319 21.3366 8.93214 21.5538C9.47284 21.7639 10.0907 21.9076 10.9955 21.9489C11.9021 21.9902 12.1915 22 14.5 22C16.8085 22 17.0979 21.9902 18.0045 21.9489C18.9093 21.9076 19.5271 21.7639 20.0678 21.5538C20.6268 21.3366 21.1008 21.0459 21.5733 20.5734C22.0459 20.1008 22.3365 19.6268 22.5537 19.0679C22.7639 18.5272 22.9076 17.9093 22.9488 17.0045C22.9902 16.098 23 15.8085 23 13.5C23 11.1915 22.9902 10.9021 22.9488 9.99549C22.9076 9.09073 22.7639 8.47287 22.5537 7.93218C22.3365 7.37323 22.0459 6.8992 21.5733 6.42666C21.1008 5.95412 20.6268 5.66348 20.0678 5.44626C19.5271 5.23612 18.9093 5.09245 18.0045 5.05115C17.0979 5.00978 16.8085 5 14.5 5ZM14.5 9.13514C12.0893 9.13514 10.1351 11.0894 10.1351 13.5C10.1351 15.9107 12.0893 17.8649 14.5 17.8649C16.9106 17.8649 18.8649 15.9107 18.8649 13.5C18.8649 11.0894 16.9106 9.13514 14.5 9.13514ZM14.5 16.3334C12.9352 16.3334 11.6666 15.0648 11.6666 13.5C11.6666 11.9352 12.9352 10.6667 14.5 10.6667C16.0648 10.6667 17.3333 11.9352 17.3333 13.5C17.3333 15.0648 16.0648 16.3334 14.5 16.3334ZM20.0573 8.96269C20.0573 9.52602 19.6006 9.98271 19.0373 9.98271C18.474 9.98271 18.0173 9.52602 18.0173 8.96269C18.0173 8.39935 18.474 7.9427 19.0373 7.9427C19.6006 7.9427 20.0573 8.39935 20.0573 8.96269Z" fill="#FFF3DD"/>
</svg>
