<svg width="28" height="28" viewBox="0 0 28 28" fill="none" xmlns="http://www.w3.org/2000/svg">
<path d="M19.25 12.625C19.25 17 13.625 20.75 13.625 20.75C13.625 20.75 8 17 8 12.625C8 11.1332 8.59263 9.70242 9.64752 8.64752C10.7024 7.59263 12.1332 7 13.625 7C15.1168 7 16.5476 7.59263 17.6025 8.64752C18.6574 9.70242 19.25 11.1332 19.25 12.625Z" stroke="#8A6741" stroke-width="1.5" stroke-linecap="round" stroke-linejoin="round"/>
<path d="M13.625 14.5C14.6605 14.5 15.5 13.6605 15.5 12.625C15.5 11.5895 14.6605 10.75 13.625 10.75C12.5895 10.75 11.75 11.5895 11.75 12.625C11.75 13.6605 12.5895 14.5 13.625 14.5Z" stroke="#8A6741" stroke-width="1.5" stroke-linecap="round" stroke-linejoin="round"/>
<circle cx="14" cy="14" r="13.5" stroke="#8A6741"/>
</svg>
