<svg width="69" height="39" viewBox="0 0 69 39" fill="none" xmlns="http://www.w3.org/2000/svg">
<path d="M23.65 2C24.25 2.6 24.65 3.45 24.1 4.3C23.75 5 23.1 5.6 22.45 5.85C21.4 6.25 12.75 6.8 11.4 6.85C11.35 9.45 11.3 10.5 11.3 12.35C11.35 14.15 11.35 15.95 11.4 17.75C11.4 19.25 11.5 21 11.5 22.65C11.5 22.95 11.6 23.15 11.75 23.35C11.95 23.55 12.15 23.6 12.4 23.6C14.7 23.45 16.35 23.25 17.6 23.45C18.9 23.6 18.9 24.8 18.95 25.45C19 26.15 18.5 27.05 17.8 27.35C16.75 27.8 14.55 28.05 12.55 28.45C12.1 28.55 11.75 28.95 11.75 29.4C11.7 32.35 11.75 35.35 11.3 36.8C11 37.75 9.95 38.5 8.8 38.3C7.75 38.1 6.95 37.4 6.6 36.35C6.35 35.5 6.15 34.6 6.1 33.7C6 32.45 6.1 30.35 6.1 29.25C4.2 28.65 3.4 25.75 6.1 24.45C6.5 19 6.8 13.25 6.35 7.3C4.5 6.9 2.9 7.3 1.75 5.9C0.8 2.7 4 2.3 4.95 2.25C9.55 2.05 19.4 1.6 20.6 1.4C21.7 1.25 22.65 1.25 23.65 2ZM27.4961 33.65C27.7461 34.75 26.9961 35.85 25.7961 36.25C24.8461 36.55 23.7461 36.4 23.1461 35.4C22.7961 34.8 22.7961 33.8 23.0961 33.15C23.3461 32.65 24.0461 32.2 24.6461 32C25.8961 31.6 27.2461 32.45 27.4961 33.65ZM60.1902 27.7C61.4402 29.4 61.2402 31.2 59.8402 32.65C57.4902 35.05 54.2902 35.65 51.1902 36.15C48.8402 36.45 46.1902 36.4 44.4402 35C43.4402 34.2 43.3902 31.25 45.6402 30.8C46.8902 30.55 49.2402 31 51.0402 30.95C52.0902 30.85 54.8902 30.75 54.6902 29.95C54.4402 28.9 51.1902 26.8 50.0902 26C48.8902 25.1 47.6902 24.2 46.4902 23.3C41.6402 19.6 40.6902 15.45 44.2902 9.7C46.2902 6.5 49.0402 3.95 52.4402 2.25C53.6902 1.55 55.1902 1.15 56.6402 1.05C58.3902 0.899999 59.6402 1.65 60.3902 2.9C60.5902 3.3 61.0402 5.05 60.8902 6.3C60.4902 9.8 59.5902 13.05 58.3902 16.3C58.0402 17.1 57.0902 18.1 56.0902 17.9C54.5902 17.65 53.8402 16.45 54.0902 14.9C54.4402 13.4 54.8902 11.85 55.2902 10.3C55.6902 8.7 56.5902 6.5 55.6902 6.5C54.2902 6.45 51.5902 8.9 50.0902 10.65C48.6402 12.3 47.6402 14.8 47.6902 16.3C47.7902 17.85 49.4402 19 50.5902 19.85C52.7902 21.6 55.0902 23.2 57.2902 24.9C58.3902 25.7 59.3902 26.65 60.1902 27.7ZM68.1211 33.65C68.3711 34.75 67.6211 35.85 66.4211 36.25C65.4711 36.55 64.3711 36.4 63.7711 35.4C63.4211 34.8 63.4211 33.8 63.7211 33.15C63.9711 32.65 64.6711 32.2 65.2711 32C66.5211 31.6 67.8711 32.45 68.1211 33.65Z" fill="#8A6741"/>
</svg>
