<svg width="28" height="28" viewBox="0 0 28 28" fill="none" xmlns="http://www.w3.org/2000/svg">
<circle cx="14" cy="14" r="13.5" stroke="#FFF3DD"/>
<g clip-path="url(#clip0_1086_5)">
<path d="M17.2918 17.724C17.454 16.393 16.5969 15.5445 14.334 14.822C13.2375 14.448 12.7211 13.9579 12.7331 13.2836C12.7792 12.5356 13.4755 11.9909 14.3991 11.9732C15.1268 11.9805 15.8366 12.1996 16.4418 12.6036C16.524 12.6546 16.5814 12.6461 16.6281 12.576C16.6919 12.4733 16.8512 12.2261 16.9044 12.1368C16.9405 12.0794 16.9476 12.0044 16.8562 11.9378C16.7251 11.8408 16.3575 11.6439 16.1599 11.561C15.5971 11.3222 14.9921 11.1984 14.3807 11.1969C13.0285 11.2026 11.9632 12.0575 11.874 13.1987C11.8159 14.0224 12.2239 14.6917 13.0994 15.2017C13.285 15.3094 14.2893 15.7089 14.6888 15.8335C15.9453 16.2245 16.5977 16.9257 16.444 17.7438C16.3045 18.4855 15.5239 18.9649 14.4479 18.9791C13.5952 18.9465 12.8274 18.5987 12.2324 18.1362L12.1325 18.0583C12.0589 18.0016 11.9781 18.0051 11.9292 18.0795C11.8938 18.1341 11.6629 18.467 11.6048 18.5541C11.5503 18.6306 11.58 18.6731 11.6367 18.7198C11.8846 18.9274 12.2154 19.1541 12.4399 19.2688C13.062 19.5855 13.7461 19.7613 14.4437 19.7838C14.9463 19.8076 15.448 19.7221 15.9142 19.533C16.6898 19.2036 17.1912 18.5457 17.2918 17.724ZM14.499 5.9923C13.0342 5.9923 11.84 7.37355 11.784 9.10182H17.2139C17.1572 7.37348 15.9637 5.9923 14.499 5.9923ZM20.0605 21.9993L20.0039 22L8.82334 21.9986C8.06259 21.9702 7.50371 21.354 7.42721 20.5883L7.42013 20.4502L6.91941 9.45244C6.91602 9.40824 6.92171 9.36381 6.93612 9.32189C6.95054 9.27996 6.97338 9.24143 7.00323 9.20866C7.03308 9.17589 7.06932 9.14957 7.10972 9.13131C7.15013 9.11306 7.19383 9.10326 7.23816 9.10252H10.762C10.8484 6.819 12.4888 5 14.4997 5C16.5105 5 18.1502 6.81964 18.2367 9.10111H21.7555C21.7996 9.10114 21.8433 9.11015 21.8838 9.12759C21.9243 9.14502 21.9608 9.17052 21.9912 9.20252C22.0215 9.23453 22.045 9.27237 22.0603 9.31375C22.0756 9.35513 22.0822 9.39919 22.0799 9.44323L21.5324 20.4849L21.5274 20.5777C21.4609 21.3527 20.834 21.978 20.0605 21.9986V21.9993Z" fill="#FFF3DD"/>
</g>
<defs>
<clipPath id="clip0_1086_5">
<rect width="17" height="17" fill="white" transform="translate(6 5)"/>
</clipPath>
</defs>
</svg>
