<svg width="28" height="28" viewBox="0 0 28 28" fill="none" xmlns="http://www.w3.org/2000/svg">
<path d="M18.3662 15.0929C18.1675 14.9841 17.1903 14.4569 17.0072 14.3824C16.8241 14.3078 16.6904 14.269 16.5479 14.4669C16.4053 14.6641 15.9999 15.1056 15.877 15.2364C15.7536 15.3672 15.635 15.3794 15.4362 15.2702C15.2375 15.1616 14.5928 14.923 13.8455 14.2045C13.2636 13.6454 12.882 12.967 12.7713 12.7599C12.6606 12.553 12.7705 12.4473 12.8757 12.3503C12.9703 12.2628 13.0871 12.1212 13.1928 12.0068C13.2982 11.8923 13.3355 11.8094 13.4079 11.6767C13.4805 11.5441 13.4512 11.4246 13.4045 11.3216C13.3574 11.2182 12.9899 10.2067 12.8363 9.79499C12.6828 9.38355 12.5116 9.44459 12.3935 9.4401C12.2753 9.43562 12.1408 9.41368 12.0058 9.40866C11.8708 9.40364 11.6496 9.44591 11.4564 9.64199C11.2633 9.83727 10.7218 10.3076 10.6845 11.3041C10.6473 12.3003 11.3365 13.2905 11.4326 13.429C11.5288 13.5679 12.7491 15.7277 14.7772 16.6161C16.8056 17.5039 16.8159 17.2334 17.1883 17.2133C17.5609 17.1937 18.4049 16.7683 18.5914 16.3019C18.778 15.8357 18.7931 15.4301 18.7455 15.3437C18.6979 15.2576 18.5647 15.2015 18.3662 15.0929ZM14.6467 19.8944C13.3054 19.8944 12.0563 19.4919 11.0133 18.8025L8.47542 19.6148L9.30041 17.1625C8.50977 16.0736 8.04284 14.7357 8.04284 13.2905C8.04284 9.64859 11.0053 6.68609 14.6467 6.68609C18.2883 6.68609 21.2508 9.64859 21.2508 13.2905C21.2508 16.9318 18.2883 19.8944 14.6467 19.8944ZM14.6467 5.35718C10.2654 5.35718 6.71367 8.90896 6.71367 13.2905C6.71367 14.7893 7.12986 16.1909 7.85205 17.3869L6.42004 21.6429L10.8124 20.2368C11.9489 20.8652 13.2559 21.2235 14.6467 21.2235C19.0279 21.2235 22.58 17.6715 22.58 13.2905C22.58 8.90896 19.028 5.35718 14.6467 5.35718Z" fill="#FFF3DD"/>
<circle cx="14" cy="14" r="13.5" stroke="#FFF3DD"/>
</svg>
